<svg xmlns="http://www.w3.org/2000/svg" width="1600" height="1210" viewBox="0 0 1600 1210" role="img" aria-labelledby="title desc" data-theme="dark" data-preset="blueprint">

  <defs>
    <linearGradient id="bg" x1="0" y1="0" x2="1" y2="1"><stop stop-color="#07111e"/><stop offset="1" stop-color="#0b1727"/></linearGradient>
    <linearGradient id="panel" x1="0" y1="0" x2="1" y2="1"><stop stop-color="#13273b"/><stop offset="1" stop-color="#0c1b2c"/></linearGradient>
    <filter id="glow"><feGaussianBlur stdDeviation="3" result="b"/><feMerge><feMergeNode in="b"/><feMergeNode in="SourceGraphic"/></feMerge></filter>
    <marker id="arrow" viewBox="0 0 10 10" refX="9" refY="5" markerWidth="7" markerHeight="7" orient="auto-start-reverse"><path d="M 0 0 L 10 5 L 0 10 z" fill="#64d9c6"/></marker>
    <pattern id="grid" width="32" height="32" patternUnits="userSpaceOnUse"><path d="M 32 0 L 0 0 0 32" fill="none" stroke="#183047" stroke-width="1" opacity=".45"/></pattern>
  </defs>
<title id="title">HumanRAG V11 · 目标提取 → 知识树过渡时序</title><desc id="desc">GoalTreeComposer → Reveal → Forming → Shared Ring Anchor → Handoff → Library Orbit</desc>
<rect width="1600" height="1210" fill="url(#bg)"/><rect width="1600" height="1210" fill="url(#grid)"/>
<circle cx="54" cy="52" r="9" fill="#64d9c6" filter="url(#glow)"/><text x="78" y="48" fill="#eff8ff" font-family="Inter, system-ui, sans-serif" font-size="24" font-weight="700">HumanRAG V11 · 目标提取 → 知识树过渡时序</text>
<text x="78" y="72" fill="#86a2b9" font-family="Inter, system-ui, sans-serif" font-size="12" letter-spacing="1.4">GoalTreeComposer → Reveal → Forming → Shared Ring Anchor → Handoff → Library Orbit</text>
<g opacity=".75"><rect x="18" y="208" width="7" height="270" rx="3" fill="#64d9c6"/><text x="34" y="225" fill="#64d9c6" font-family="Inter, system-ui, sans-serif" font-size="10" letter-spacing=".7" transform="rotate(90 34 225)">整理目标</text></g><g opacity=".75"><rect x="18" y="478" width="7" height="340" rx="3" fill="#69a9f2"/><text x="34" y="495" fill="#69a9f2" font-family="Inter, system-ui, sans-serif" font-size="10" letter-spacing=".7" transform="rotate(90 34 495)">Reveal 与 Forming</text></g><g opacity=".75"><rect x="18" y="818" width="7" height="320" rx="3" fill="#f0b968"/><text x="34" y="835" fill="#f0b968" font-family="Inter, system-ui, sans-serif" font-size="10" letter-spacing=".7" transform="rotate(90 34 835)">共享锚点与移交</text></g><g><rect x="18" y="128" width="140" height="68" rx="10" fill="url(#panel)" stroke="#4faeaa"/>
      <text x="88" y="156" text-anchor="middle" fill="#eff8ff" font-family="Inter, system-ui, sans-serif" font-size="13" font-weight="650">用户</text>
      <text x="88" y="177" text-anchor="middle" fill="#86a2b9" font-family="Inter, system-ui, sans-serif" font-size="9.5">external</text>
      <line x1="88" y1="196" x2="88" y2="920" stroke="#33536a" stroke-width="1" stroke-dasharray="5 7"/></g><g><rect x="196" y="128" width="140" height="68" rx="10" fill="url(#panel)" stroke="#4faeaa"/>
      <text x="266" y="156" text-anchor="middle" fill="#eff8ff" font-family="Inter, system-ui, sans-serif" font-size="13" font-weight="650">Drawer</text>
      <text x="266" y="177" text-anchor="middle" fill="#86a2b9" font-family="Inter, system-ui, sans-serif" font-size="9.5">GoalLensDrawer</text>
      <line x1="266" y1="196" x2="266" y2="920" stroke="#33536a" stroke-width="1" stroke-dasharray="5 7"/></g><g><rect x="374" y="128" width="140" height="68" rx="10" fill="url(#panel)" stroke="#4faeaa"/>
      <text x="444" y="156" text-anchor="middle" fill="#eff8ff" font-family="Inter, system-ui, sans-serif" font-size="13" font-weight="650">Composer</text>
      <text x="444" y="177" text-anchor="middle" fill="#86a2b9" font-family="Inter, system-ui, sans-serif" font-size="9.5">GoalTreeComposer</text>
      <line x1="444" y1="196" x2="444" y2="920" stroke="#33536a" stroke-width="1" stroke-dasharray="5 7"/></g><g><rect x="552" y="128" width="140" height="68" rx="10" fill="url(#panel)" stroke="#4faeaa"/>
      <text x="622" y="156" text-anchor="middle" fill="#eff8ff" font-family="Inter, system-ui, sans-serif" font-size="13" font-weight="650">Reveal</text>
      <text x="622" y="177" text-anchor="middle" fill="#86a2b9" font-family="Inter, system-ui, sans-serif" font-size="9.5">GraphRevealPlan</text>
      <line x1="622" y1="196" x2="622" y2="920" stroke="#33536a" stroke-width="1" stroke-dasharray="5 7"/></g><g><rect x="730" y="128" width="140" height="68" rx="10" fill="url(#panel)" stroke="#4faeaa"/>
      <text x="800" y="156" text-anchor="middle" fill="#eff8ff" font-family="Inter, system-ui, sans-serif" font-size="13" font-weight="650">Forming</text>
      <text x="800" y="177" text-anchor="middle" fill="#86a2b9" font-family="Inter, system-ui, sans-serif" font-size="9.5">NodePointField</text>
      <line x1="800" y1="196" x2="800" y2="920" stroke="#33536a" stroke-width="1" stroke-dasharray="5 7"/></g><g><rect x="908" y="128" width="140" height="68" rx="10" fill="url(#panel)" stroke="#4faeaa"/>
      <text x="978" y="156" text-anchor="middle" fill="#eff8ff" font-family="Inter, system-ui, sans-serif" font-size="13" font-weight="650">Ring Anchor</text>
      <text x="978" y="177" text-anchor="middle" fill="#86a2b9" font-family="Inter, system-ui, sans-serif" font-size="9.5">TreeOrbitLayout</text>
      <line x1="978" y1="196" x2="978" y2="920" stroke="#33536a" stroke-width="1" stroke-dasharray="5 7"/></g><g><rect x="1086" y="128" width="140" height="68" rx="10" fill="url(#panel)" stroke="#4faeaa"/>
      <text x="1156" y="156" text-anchor="middle" fill="#eff8ff" font-family="Inter, system-ui, sans-serif" font-size="13" font-weight="650">Store</text>
      <text x="1156" y="177" text-anchor="middle" fill="#86a2b9" font-family="Inter, system-ui, sans-serif" font-size="9.5">TransitionStore</text>
      <line x1="1156" y1="196" x2="1156" y2="920" stroke="#33536a" stroke-width="1" stroke-dasharray="5 7"/></g><g><rect x="1264" y="128" width="140" height="68" rx="10" fill="url(#panel)" stroke="#4faeaa"/>
      <text x="1334" y="156" text-anchor="middle" fill="#eff8ff" font-family="Inter, system-ui, sans-serif" font-size="13" font-weight="650">Handoff</text>
      <text x="1334" y="177" text-anchor="middle" fill="#86a2b9" font-family="Inter, system-ui, sans-serif" font-size="9.5">SpatialExperienceShell</text>
      <line x1="1334" y1="196" x2="1334" y2="920" stroke="#33536a" stroke-width="1" stroke-dasharray="5 7"/></g><g><rect x="1442" y="128" width="140" height="68" rx="10" fill="url(#panel)" stroke="#4faeaa"/>
      <text x="1512" y="156" text-anchor="middle" fill="#eff8ff" font-family="Inter, system-ui, sans-serif" font-size="13" font-weight="650">Preview</text>
      <text x="1512" y="177" text-anchor="middle" fill="#86a2b9" font-family="Inter, system-ui, sans-serif" font-size="9.5">Library Orbit</text>
      <line x1="1512" y1="196" x2="1512" y2="920" stroke="#33536a" stroke-width="1" stroke-dasharray="5 7"/></g><g><line x1="88" y1="233" x2="266" y2="233" stroke="#f0b968" stroke-width="2" marker-end="url(#arrow)"/>
      <rect x="147.54" y="212" width="58.92" height="18" rx="8" fill="#081522" stroke="#24475a"/>
      <text x="177" y="225" text-anchor="middle" fill="#c8dce8" font-family="Inter, system-ui, sans-serif" font-size="10.5">自然语言目标</text></g><g><line x1="266" y1="303" x2="444" y2="303" stroke="#64d9c6" stroke-width="1.4" marker-end="url(#arrow)"/>
      <rect x="325.54" y="282" width="58.92" height="18" rx="8" fill="#081522" stroke="#24475a"/>
      <text x="355" y="295" text-anchor="middle" fill="#c8dce8" font-family="Inter, system-ui, sans-serif" font-size="10.5">解析意图文本</text></g><g><line x1="444" y1="373" x2="1156" y2="373" stroke="#f0b968" stroke-width="2" marker-end="url(#arrow)"/>
      <rect x="722.8" y="352" width="154.4" height="18" rx="8" fill="#081522" stroke="#24475a"/>
      <text x="800" y="365" text-anchor="middle" fill="#c8dce8" font-family="Inter, system-ui, sans-serif" font-size="10.5">draft + seedPointIds</text></g><g><line x1="444" y1="443" x2="622" y2="443" stroke="#64d9c6" stroke-width="1.4" marker-end="url(#arrow)"/>
      <rect x="503.54" y="422" width="58.92" height="18" rx="8" fill="#081522" stroke="#24475a"/>
      <text x="533" y="435" text-anchor="middle" fill="#c8dce8" font-family="Inter, system-ui, sans-serif" font-size="10.5">请求传播计划</text></g><g><line x1="622" y1="513" x2="800" y2="513" stroke="#64d9c6" stroke-width="1.4" marker-end="url(#arrow)"/>
      <rect x="654.26" y="492" width="113.48" height="18" rx="8" fill="#081522" stroke="#24475a"/>
      <text x="711" y="505" text-anchor="middle" fill="#c8dce8" font-family="Inter, system-ui, sans-serif" font-size="10.5">nodeDelay 分层唤醒</text></g><g><line x1="1156" y1="583" x2="800" y2="583" stroke="#64d9c6" stroke-width="1.4" marker-end="url(#arrow)"/>
      <rect x="853.06" y="562" width="249.88" height="18" rx="8" fill="#081522" stroke="#24475a"/>
      <text x="978" y="575" text-anchor="middle" fill="#c8dce8" font-family="Inter, system-ui, sans-serif" font-size="10.5">highlight → detach → recede → form</text></g><g><line x1="800" y1="653" x2="978" y2="653" stroke="#64d9c6" stroke-width="1.4" marker-end="url(#arrow)"/>
      <rect x="825.44" y="632" width="127.12" height="18" rx="8" fill="#081522" stroke="#24475a"/>
      <text x="889" y="645" text-anchor="middle" fill="#c8dce8" font-family="Inter, system-ui, sans-serif" font-size="10.5">按共享 anchor 完成目标树</text></g><g><line x1="978" y1="723" x2="1156" y2="723" stroke="#64d9c6" stroke-width="1.4" marker-end="url(#arrow)"/>
      <rect x="1020.49" y="702" width="93.02" height="18" rx="8" fill="#081522" stroke="#24475a"/>
      <text x="1067" y="715" text-anchor="middle" fill="#c8dce8" font-family="Inter, system-ui, sans-serif" font-size="10.5">visualReady</text></g><g><line x1="1156" y1="793" x2="1334" y2="793" stroke="#f0b968" stroke-width="2" marker-end="url(#arrow)"/>
      <rect x="1184.85" y="772" width="120.3" height="18" rx="8" fill="#081522" stroke="#24475a"/>
      <text x="1245" y="785" text-anchor="middle" fill="#c8dce8" font-family="Inter, system-ui, sans-serif" font-size="10.5">Ready 后停稳 220ms</text></g><g><line x1="1334" y1="863" x2="1512" y2="863" stroke="#64d9c6" stroke-width="1.4" marker-end="url(#arrow)"/>
      <rect x="1298.06" y="842" width="249.88" height="18" rx="8" fill="#081522" stroke="#24475a"/>
      <text x="1423" y="855" text-anchor="middle" fill="#c8dce8" font-family="Inter, system-ui, sans-serif" font-size="10.5">同一 Canvas · treeId · held rotation</text></g><g><line x1="1512" y1="933" x2="88" y2="933" stroke="#64d9c6" stroke-width="1.4" marker-end="url(#arrow)"/>
      <rect x="743.26" y="912" width="113.48" height="18" rx="8" fill="#081522" stroke="#24475a"/>
      <text x="800" y="925" text-anchor="middle" fill="#c8dce8" font-family="Inter, system-ui, sans-serif" font-size="10.5">进入 Library 三维环</text></g><g><rect x="72" y="985" width="700" height="129" rx="12" fill="#0b1a2a" stroke="#24435a"/>
    <circle cx="94" cy="1011" r="5" fill="#64d9c6"/><text x="110" y="1016" fill="#eaf5fb" font-family="Inter, system-ui, sans-serif" font-size="15" font-weight="650">关键不变式</text>
    <circle cx="96" cy="1041" r="2.5" fill="#64d9c6"/><text x="110" y="1046" fill="#a9c0d1" font-family="Inter, system-ui, sans-serif" font-size="12">GoalTreeComposer → Reveal → Forming → Shared Ring Anchor → Handoff → Library Orbit</text><circle cx="96" cy="1066" r="2.5" fill="#64d9c6"/><text x="110" y="1071" fill="#a9c0d1" font-family="Inter, system-ui, sans-serif" font-size="12">提取全程只有一套 CameraController，移交时方向连续</text><circle cx="96" cy="1091" r="2.5" fill="#64d9c6"/><text x="110" y="1096" fill="#a9c0d1" font-family="Inter, system-ui, sans-serif" font-size="12">Goal Extraction 与 Library Preview 使用同一组确定性环形锚点</text>
  </g><g><rect x="812" y="985" width="700" height="129" rx="12" fill="#0b1a2a" stroke="#24435a"/>
    <circle cx="834" cy="1011" r="5" fill="#f0b968"/><text x="850" y="1016" fill="#eaf5fb" font-family="Inter, system-ui, sans-serif" font-size="15" font-weight="650">落点</text>
    <circle cx="836" cy="1041" r="2.5" fill="#f0b968"/><text x="850" y="1046" fill="#a9c0d1" font-family="Inter, system-ui, sans-serif" font-size="12">TransitionStore 同时等待 treeReady 与 visualReady</text><circle cx="836" cy="1066" r="2.5" fill="#f0b968"/><text x="850" y="1071" fill="#a9c0d1" font-family="Inter, system-ui, sans-serif" font-size="12">Ready 停稳 220ms 后，SpatialExperienceShell 才执行移交</text><circle cx="836" cy="1091" r="2.5" fill="#f0b968"/><text x="850" y="1096" fill="#a9c0d1" font-family="Inter, system-ui, sans-serif" font-size="12">Library Orbit 延续目标树旋转并让其他树平滑重排</text>
  </g>
</svg>